PathFileType	4	(X/Y/Z)	OpenSim_Sub01_EMGBaseline_Magnet.trc
DataRate	CameraRate	NumFrames	NumMarkers	Units	OrigDataRate	OrigDataStartFrame	OrigNumFrames
100	100	40	8	m	100	3803	7604
Frame#	Time	torso_imu_offset_imu	pelvis_imu_offset_imu	tibia_r_imu_offset_imu	femur_r_imu_offset_imu	tibia_l_imu_offset_imu	femur_l_imu_offset_imu	toes_r_imu_offset_imu	toes_l_imu_offset_imu
				X1	Y1	Z1	X2	Y2	Z2	X3	Y3	Z3	X4	Y4	Z4	X5	Y5	Z5	X6	Y6	Z6	X7	Y7	Z7	X8		Y8	Z8	

3803	38.02000000	-0.92951884	-0.10307222	0.09107546	-0.72715415	0.02228449	-0.59658869	-0.57400337	-0.54349965	0.04978718	-0.67546494	-0.43835470	0.14682252	-0.18522955	0.79106889	-0.00623972	-0.53718435	-0.15551920	0.15738401	-0.71023123	-0.08131541	-0.34649547	-0.77399394	-0.00449076	0.17904883
3804	38.03000000	-0.92904315	-0.09836747	0.09370688	-0.72776390	0.02045667	-0.59553037	-0.57453104	-0.54790042	0.04667485	-0.67039846	-0.44455875	0.14586430	-0.21104476	0.78419020	-0.00229501	-0.53827085	-0.16456286	0.15749071	-0.70818830	-0.08219336	-0.34412116	-0.78454198	-0.00955824	0.14590448
3805	38.04000000	-0.92788686	-0.09420367	0.09612721	-0.73037449	0.02062557	-0.59452444	-0.57604661	-0.55354878	0.04108115	-0.66647618	-0.45121980	0.14543569	-0.23864248	0.77696903	-0.00079516	-0.53994376	-0.17291474	0.15791896	-0.70666998	-0.08417022	-0.34233688	-0.79473343	-0.01437341	0.10944645
3806	38.05000000	-0.92812579	-0.09193749	0.09789060	-0.73269065	0.01967116	-0.59402789	-0.57335109	-0.55837352	0.03689831	-0.66389748	-0.45868457	0.14494179	-0.26524125	0.76911701	-0.00002185	-0.54212841	-0.18142130	0.15675429	-0.70603600	-0.08696198	-0.34315868	-0.79792630	-0.02045284	0.07103038
3807	38.06000000	-0.92948202	-0.09128976	0.09937726	-0.73374105	0.01750110	-0.59457157	-0.56664795	-0.56227361	0.03526273	-0.66214716	-0.46648793	0.14480809	-0.29110737	0.75994945	0.00128371	-0.54404168	-0.18968635	0.15451698	-0.70605299	-0.09028743	-0.34559483	-0.79438265	-0.02707832	0.03208359
3808	38.07000000	-0.92986647	-0.09072247	0.10160290	-0.73357373	0.01635283	-0.59674266	-0.56029825	-0.56666406	0.03518948	-0.66016009	-0.47354001	0.14624488	-0.31885249	0.74847682	0.00402595	-0.54435568	-0.19635752	0.15360086	-0.70603119	-0.09386762	-0.34633929	-0.78967788	-0.03181220	-0.00591186
3809	38.08000000	-0.92814109	-0.08920736	0.10506643	-0.73250067	0.01723541	-0.60039884	-0.55713097	-0.57220925	0.03584568	-0.65718751	-0.47893649	0.14962041	-0.34997282	0.73407502	0.00838632	-0.54251396	-0.20064981	0.15551245	-0.70543824	-0.09756693	-0.34345508	-0.78761747	-0.03324348	-0.04212691
3810	38.09000000	-0.92613214	-0.08732710	0.10868254	-0.73154026	0.01732988	-0.60322577	-0.55510485	-0.57722730	0.03701218	-0.65346266	-0.48237224	0.15274081	-0.38247101	0.71722912	0.01242498	-0.54029404	-0.20353731	0.15897858	-0.70424452	-0.10167542	-0.33925007	-0.78634176	-0.03314333	-0.07767687
3811	38.10000000	-0.92603899	-0.08591427	0.11113884	-0.73174676	0.01342868	-0.60273899	-0.55148483	-0.57978923	0.03861615	-0.64938480	-0.48376146	0.15315161	-0.41384035	0.69860507	0.01400166	-0.53976492	-0.20619237	0.16229064	-0.70255761	-0.10648529	-0.33664471	-0.78310602	-0.03374517	-0.11391566
3812	38.11000000	-0.92744361	-0.08508378	0.11210718	-0.73275743	0.00710032	-0.59991661	-0.54662726	-0.58075996	0.04107559	-0.64512050	-0.48464254	0.15158685	-0.44361735	0.67850704	0.01384501	-0.54090038	-0.20788836	0.16491433	-0.70114738	-0.11114274	-0.33598234	-0.77759488	-0.03539569	-0.15038765
3813	38.12000000	-0.92791405	-0.08439819	0.11201729	-0.73311909	0.00358812	-0.59840114	-0.54326715	-0.58315414	0.04518553	-0.64065730	-0.48780318	0.15123405	-0.47291118	0.65696059	0.01489156	-0.54206182	-0.20643797	0.16721936	-0.70129297	-0.11391254	-0.33562291	-0.77136247	-0.03698978	-0.18524487
3814	38.13000000	-0.92629733	-0.08356556	0.11147894	-0.73190544	0.00580057	-0.60047273	-0.54273242	-0.58871006	0.05067598	-0.63607121	-0.49472834	0.15397593	-0.50251620	0.63381091	0.01924726	-0.54219257	-0.20123091	0.16960084	-0.70358938	-0.11400840	-0.33454371	-0.76521305	-0.03814796	-0.21740733
3815	38.14000000	-0.92539479	-0.08276840	0.11157900	-0.72983912	0.00942755	-0.60415967	-0.54198802	-0.59520913	0.05408338	-0.63171481	-0.50293657	0.15763061	-0.53217122	0.60838856	0.02638143	-0.54208844	-0.19645441	0.17246024	-0.70655976	-0.11353119	-0.33370804	-0.75757987	-0.04075784	-0.24818360
3816	38.15000000	-0.92842198	-0.08226818	0.11335263	-0.72789361	0.00921280	-0.60683067	-0.53747930	-0.59988879	0.05171700	-0.62795690	-0.50937633	0.15944284	-0.56137627	0.58003555	0.03529061	-0.54279395	-0.19677473	0.17614056	-0.70845017	-0.11493411	-0.33431843	-0.74660917	-0.04693777	-0.27926226
3817	38.16000000	-0.93385348	-0.08219541	0.11574125	-0.72623439	0.00571211	-0.60774748	-0.52994713	-0.60279392	0.04532107	-0.62464352	-0.51343903	0.15932212	-0.58897891	0.54968897	0.04519156	-0.54395056	-0.20075350	0.18009268	-0.70909259	-0.11795562	-0.33566240	-0.73271203	-0.05598595	-0.31141103
3818	38.17000000	-0.93651601	-0.08257959	0.11607554	-0.72440518	0.00395382	-0.60762916	-0.52343780	-0.60612995	0.04082179	-0.62121840	-0.51639663	0.15922893	-0.61332494	0.51951324	0.05547044	-0.54412011	-0.20225445	0.18308121	-0.70953953	-0.12024510	-0.33555403	-0.71804242	-0.06503061	-0.34468840
3819	38.18000000	-0.93351301	-0.08319203	0.11295297	-0.72227061	0.00692111	-0.60725444	-0.52041486	-0.61138752	0.04168872	-0.61725845	-0.51952527	0.16059357	-0.63338589	0.49095792	0.06538020	-0.54239785	-0.19692101	0.18454910	-0.71046054	-0.12039707	-0.33273273	-0.70395080	-0.07233817	-0.37870250
3820	38.19000000	-0.92899183	-0.08304457	0.10885839	-0.72069641	0.01117834	-0.60746796	-0.51838638	-0.61776805	0.04377212	-0.61276700	-0.52396977	0.16311432	-0.65003104	0.46325468	0.07376495	-0.53954664	-0.18604399	0.18600732	-0.71129396	-0.11997417	-0.32880002	-0.68926692	-0.07972304	-0.41177750
3821	38.20000000	-0.92805299	-0.08115001	0.10683698	-0.72064220	0.01237868	-0.60899907	-0.51415576	-0.62407012	0.04189518	-0.60782843	-0.53071617	0.16614791	-0.66447284	0.43532103	0.07951531	-0.53661238	-0.17197259	0.18918175	-0.71132654	-0.12096645	-0.32575183	-0.67244495	-0.08950198	-0.44206304
3822	38.21000000	-0.93057242	-0.07863717	0.10756381	-0.72170374	0.01029835	-0.61066986	-0.50769226	-0.62939749	0.03659143	-0.60256044	-0.53873837	0.16873269	-0.67780815	0.40750996	0.08334872	-0.53426266	-0.15726989	0.19329291	-0.71098285	-0.12354830	-0.32356840	-0.65329296	-0.10169303	-0.46864883
3823	38.22000000	-0.93240536	-0.07826268	0.10988937	-0.72242743	0.00788687	-0.60983524	-0.50140148	-0.63308934	0.03278848	-0.59710635	-0.54546209	0.16966231	-0.69104431	0.38127913	0.08738827	-0.53287375	-0.14466273	0.19563367	-0.71156289	-0.12649659	-0.32067871	-0.63266165	-0.11454492	-0.49134845
3824	38.23000000	-0.93095236	-0.08145104	0.11256828	-0.72207472	0.00742090	-0.60526395	-0.49685347	-0.63515399	0.03325365	-0.59166102	-0.54932048	0.16835307	-0.70440582	0.35770593	0.09298340	-0.53264644	-0.13577063	0.19477186	-0.71378492	-0.12879345	-0.31607771	-0.61198149	-0.12658211	-0.51022957
3825	38.24000000	-0.92851296	-0.08554403	0.11420960	-0.72211205	0.00893502	-0.60003783	-0.49294919	-0.63757022	0.03399924	-0.58657028	-0.55185852	0.16609003	-0.71579790	0.33665330	0.09907723	-0.53328240	-0.12891019	0.19321116	-0.71657176	-0.13013776	-0.31056063	-0.59432588	-0.13728359	-0.52605950
3826	38.25000000	-0.92807772	-0.08734516	0.11356213	-0.72421391	0.01201533	-0.59778552	-0.48817239	-0.64250904	0.03015485	-0.58219282	-0.55508790	0.16442608	-0.72287537	0.31785559	0.10425594	-0.53439069	-0.12191965	0.19397729	-0.71858195	-0.13038261	-0.30517465	-0.58278018	-0.14637752	-0.53964372
3827	38.26000000	-0.92942392	-0.08689825	0.11186825	-0.72706763	0.01573920	-0.59838481	-0.48214781	-0.64956722	0.02232938	-0.57866125	-0.55939452	0.16375154	-0.72596272	0.30248324	0.10842182	-0.53557550	-0.11461729	0.19701975	-0.71948651	-0.12970579	-0.29975571	-0.57606324	-0.15468010	-0.55042289
3828	38.27000000	-0.92985627	-0.08674077	0.11228860	-0.72706247	0.01879272	-0.59882700	-0.47537839	-0.65636062	0.01534850	-0.57593415	-0.56391284	0.16356193	-0.72743893	0.29281127	0.11248989	-0.53643736	-0.10834538	0.19992048	-0.71973595	-0.12853496	-0.29320787	-0.56953443	-0.16384425	-0.55678743
3829	38.28000000	-0.92788073	-0.08842952	0.11632992	-0.72249444	0.02028070	-0.59717146	-0.46818136	-0.66140614	0.01248006	-0.57391295	-0.56785432	0.16349033	-0.72893100	0.29002259	0.11685792	-0.53673174	-0.10421130	0.20090066	-0.71992379	-0.12715163	-0.28500683	-0.56097948	-0.17449371	-0.55755157
3830	38.29000000	-0.92576181	-0.09041678	0.12043790	-0.71750089	0.02058206	-0.59487192	-0.46025498	-0.66604959	0.01204071	-0.57234255	-0.57075481	0.16364698	-0.72967449	0.29197042	0.12030940	-0.53667472	-0.10250790	0.20026200	-0.72100885	-0.12538395	-0.27639823	-0.55565057	-0.18413007	-0.55286910
3831	38.30000000	-0.92623484	-0.09072731	0.12041352	-0.71694104	0.02034287	-0.59391146	-0.45120534	-0.67205621	0.01153618	-0.57093437	-0.57226798	0.16421699	-0.72852491	0.29606027	0.12145341	-0.53655472	-0.10338649	0.19871732	-0.72390358	-0.12301678	-0.26883030	-0.55973041	-0.18977949	-0.54328677
3832	38.31000000	-0.92868243	-0.08957772	0.11641167	-0.72031615	0.02068153	-0.59480342	-0.44097105	-0.67964174	0.01003539	-0.56933124	-0.57291288	0.16518586	-0.72526748	0.30220998	0.12075539	-0.53646829	-0.10713352	0.19737560	-0.72781594	-0.12044082	-0.26188600	-0.57267005	-0.18999153	-0.53152471
3833	38.32000000	-0.92990737	-0.08887139	0.11193811	-0.72300411	0.02307936	-0.59692965	-0.42974683	-0.68782934	0.00781064	-0.56712367	-0.57387414	0.16638540	-0.72040311	0.31227025	0.12010935	-0.53636422	-0.11413871	0.19765038	-0.73064241	-0.11851300	-0.25371283	-0.58873974	-0.18448899	-0.52197429
3834	38.33000000	-0.92810874	-0.08990772	0.10949156	-0.72186477	0.02811279	-0.59952489	-0.41783162	-0.69593934	0.00523870	-0.56443894	-0.57559029	0.16760317	-0.71453775	0.32667049	0.12078595	-0.53616087	-0.12380991	0.20040000	-0.73111809	-0.11786133	-0.24289836	-0.60371482	-0.17372999	-0.51654289
3835	38.34000000	-0.92583168	-0.09206245	0.10832242	-0.71847678	0.03364164	-0.60147326	-0.40581446	-0.70426622	0.00291476	-0.56300346	-0.57623192	0.16850686	-0.70853472	0.34146902	0.12209454	-0.53569747	-0.13262962	0.20480990	-0.73057015	-0.11839795	-0.22944762	-0.61823888	-0.16026794	-0.50962918
3836	38.35000000	-0.92614891	-0.09437758	0.10713685	-0.71523964	0.03718220	-0.60165773	-0.39423532	-0.71321179	0.00140649	-0.56466227	-0.57377341	0.16874118	-0.70326399	0.35220977	0.12306814	-0.53482878	-0.13674276	0.20980611	-0.73073231	-0.11991102	-0.21364767	-0.63376520	-0.14695859	-0.49475140
3837	38.36000000	-0.92800388	-0.09622253	0.10548397	-0.71378113	0.03862554	-0.59991451	-0.38209770	-0.72208899	0.00026521	-0.56861176	-0.56952701	0.16793809	-0.69898331	0.35883189	0.12403095	-0.53386140	-0.13533678	0.21506093	-0.73225058	-0.12231360	-0.19608415	-0.65039441	-0.13538519	-0.47302547
3838	38.37000000	-0.92716316	-0.09721905	0.10356166	-0.71513432	0.03969037	-0.59681364	-0.36722326	-0.72937319	-0.00173986	-0.57201041	-0.56737290	0.16571984	-0.69547898	0.36465732	0.12630070	-0.53344944	-0.12994170	0.22082094	-0.73493352	-0.12561495	-0.17757229	-0.66718571	-0.12615106	-0.45141462
3839	38.38000000	-0.92174827	-0.09727105	0.10141749	-0.71945726	0.04149925	-0.59301022	-0.34870963	-0.73435659	-0.00559124	-0.57326697	-0.56915152	0.16189380	-0.69238676	0.37224118	0.13063124	-0.53385149	-0.12278035	0.22695416	-0.73838335	-0.12988322	-0.15852577	-0.68294633	-0.11939428	-0.43508529
3840	38.39000000	-0.91712126	-0.09710175	0.09860274	-0.72435355	0.04326356	-0.58935599	-0.32953608	-0.73882271	-0.01147383	-0.57466098	-0.57044615	0.15681813	-0.68893094	0.38160150	0.13602488	-0.53412420	-0.11795516	0.23216003	-0.74165325	-0.13535414	-0.13814770	-0.69581443	-0.11394543	-0.42341796
3841	38.40000000	-0.91945519	-0.09752953	0.09466985	-0.72713041	0.04392594	-0.58667947	-0.31315114	-0.74488003	-0.01936659	-0.57899572	-0.56608532	0.15096128	-0.68427605	0.39225242	0.14122476	-0.53314620	-0.11959446	0.23506400	-0.74374948	-0.14226965	-0.11533522	-0.70395028	-0.10851176	-0.41474428
3842	38.41000000	-0.92702902	-0.09853019	0.09056203	-0.72772806	0.04369512	-0.58491782	-0.29928609	-0.75260766	-0.02837289	-0.58620255	-0.55691453	0.14491836	-0.67783085	0.40318743	0.14594070	-0.53045647	-0.12701425	0.23641715	-0.74449525	-0.15050072	-0.08775650	-0.70769617	-0.10357289	-0.40770851
